<?xml version="1.0" encoding="UTF-8" standalone="no"?>
<!-- Created with Inkscape (http://www.inkscape.org/) -->

<svg
   xmlns:dc="http://purl.org/dc/elements/1.1/"
   xmlns:cc="http://creativecommons.org/ns#"
   xmlns:rdf="http://www.w3.org/1999/02/22-rdf-syntax-ns#"
   xmlns:svg="http://www.w3.org/2000/svg"
   xmlns="http://www.w3.org/2000/svg"
   xmlns:sodipodi="http://sodipodi.sourceforge.net/DTD/sodipodi-0.dtd"
   xmlns:inkscape="http://www.inkscape.org/namespaces/inkscape"
   width="168.45409mm"
   height="61.179222mm"
   viewBox="0 0 168.45409 61.179222"
   version="1.1"
   id="svg8"
   sodipodi:docname="logo.svg"
   inkscape:version="0.92.5 (2060ec1f9f, 2020-04-08)">
  <defs
     id="defs2" />
  <sodipodi:namedview
     id="base"
     pagecolor="#ffffff"
     bordercolor="#666666"
     borderopacity="1.0"
     inkscape:pageopacity="0.0"
     inkscape:pageshadow="2"
     inkscape:zoom="0.49497475"
     inkscape:cx="474.85987"
     inkscape:cy="56.532414"
     inkscape:document-units="mm"
     inkscape:current-layer="layer1"
     showgrid="false"
     inkscape:window-width="1366"
     inkscape:window-height="705"
     inkscape:window-x="-8"
     inkscape:window-y="-8"
     inkscape:window-maximized="1"
     inkscape:pagecheckerboard="true"
     fit-margin-top="10"
     fit-margin-left="10"
     fit-margin-right="10"
     fit-margin-bottom="10" />
  <metadata
     id="metadata5">
    <rdf:RDF>
      <cc:Work
         rdf:about="">
        <dc:format>image/svg+xml</dc:format>
        <dc:type
           rdf:resource="http://purl.org/dc/dcmitype/StillImage" />
        <dc:title></dc:title>
      </cc:Work>
    </rdf:RDF>
  </metadata>
  <g
     inkscape:label="Camada 1"
     inkscape:groupmode="layer"
     id="layer1"
     transform="translate(-56.79152,-95.817215)">
    <g
       aria-label="Sua Logo"
       style="font-style:normal;font-variant:normal;font-weight:normal;font-stretch:normal;font-size:7.05555534px;line-height:1.25;font-family:Magiera;-inkscape-font-specification:Magiera;letter-spacing:0px;word-spacing:0px;fill:#ffffff;fill-opacity:1;stroke:#ffffff;stroke-width:0.76499999;stroke-miterlimit:4;stroke-dasharray:none"
       id="text12">
      <path
         d="m 87.268242,111.84416 q -0.874889,0 -1.636889,0.45155 -0.733778,0.45156 -1.185334,1.12889 -0.423333,0.67734 -0.423333,1.27 0,0.508 0.338667,0.81845 0.338666,0.28222 1.016,0.28222 1.382889,0 2.427111,-0.67733 1.072444,-0.67734 1.636889,-1.74978 0.592666,-1.10067 0.592666,-2.25778 0,-1.66511 -1.157111,-2.794 -1.128889,-1.12889 -3.330222,-1.12889 -2.568222,0 -4.289778,1.12889 -1.721555,1.12889 -2.003777,3.07622 -0.08467,0.53623 -0.08467,1.04423 0,1.46755 0.592667,2.65288 0.620889,1.15712 1.467555,2.00378 0.874889,0.84667 2.370667,2.06022 1.439333,1.12889 2.286,1.97556 0.846666,0.81844 1.411111,1.91911 0.592666,1.10067 0.592666,2.48356 0,0.62089 -0.05644,0.93133 -0.620889,4.43089 -4.515555,5.89844 -3.894667,1.46756 -9.002889,1.46756 -3.612444,0 -5.390444,-1.24178 -1.749778,-1.24178 -1.749778,-3.16089 0,-1.69333 1.27,-3.41489 1.27,-1.74977 3.471333,-2.85044 2.201333,-1.12889 4.797778,-1.12889 1.947333,0 2.878666,0.70556 0.931334,0.67733 0.931334,1.74977 0,1.016 -0.705556,2.08845 -0.705555,1.07244 -1.862666,1.778 -1.128889,0.70555 -2.342445,0.70555 -0.225778,0 -0.225778,-0.19755 0,-0.0847 0.08467,-0.14111 0.08467,-0.0847 0.197556,-0.0847 0.846666,0 1.749777,-0.59267 0.903111,-0.62088 1.467556,-1.524 0.592667,-0.93133 0.592667,-1.72155 0,-0.79022 -0.649112,-1.27 -0.649111,-0.508 -2.060222,-0.508 -1.975555,0 -3.556,0.90311 -1.552222,0.87489 -2.427111,2.286 -0.874889,1.38289 -0.874889,2.794 0,1.66511 1.27,2.73756 1.298223,1.10066 3.81,1.10066 3.781778,0 5.954889,-1.12889 2.201333,-1.12889 3.019778,-2.65289 0.818444,-1.524 0.818444,-2.93511 0,-1.21355 -0.536222,-2.25777 -0.536222,-1.04423 -1.298222,-1.86267 -0.762,-0.81845 -2.088445,-1.97556 -1.382888,-1.21355 -2.201333,-2.08844 -0.818444,-0.87489 -1.411111,-2.00378 -0.564444,-1.15711 -0.564444,-2.54 0,-1.10067 0.366888,-2.286 1.524,-4.91067 9.200445,-4.91067 3.048,0 4.600222,1.27 1.552222,1.27 1.552222,3.18912 0,1.46755 -0.903111,2.90688 -0.874889,1.41112 -2.483556,2.31423 -1.580444,0.90311 -3.612444,0.90311 -1.213556,0 -1.834444,-0.508 -0.592667,-0.508 -0.592667,-1.29822 0,-0.79023 0.564444,-1.60867 0.564445,-0.84667 1.552223,-1.38289 1.016,-0.56444 2.229555,-0.56444 0.225778,0 0.225778,0.19755 0,0.0847 -0.08467,0.16933 -0.08467,0.0564 -0.197555,0.0564 z"
         style="font-style:normal;font-variant:normal;font-weight:normal;font-stretch:normal;font-size:28.22222137px;font-family:Magiera;-inkscape-font-specification:Magiera;fill:#ffffff;stroke:#ffffff;stroke-width:0.76499999;stroke-miterlimit:4;stroke-dasharray:none"
         id="path859" />
      <path
         d="m 108.39919,124.00794 q 0.11289,-0.19756 0.254,-0.19756 0.14111,0 0.19755,0.11289 0.0564,0.11289 -0.0282,0.254 -2.032,3.16089 -3.86644,5.10822 -1.83445,1.94734 -3.61245,1.94734 -2.765775,0 -2.765775,-2.25778 0,-0.90311 0.423333,-2.11667 -3.104444,3.18911 -5.475111,3.18911 -1.27,0 -1.890889,-0.67733 -0.620888,-0.67733 -0.620888,-1.86267 0,-1.55222 0.931333,-3.75355 0.959555,-2.20134 2.568222,-4.43089 1.608667,-2.22956 3.499556,-3.95111 0.592666,-0.67734 1.411111,-0.67734 0.451555,0 0.761998,0.22578 0.31045,0.22578 0.31045,0.53622 0,0.31045 -0.28223,0.59267 -1.608663,1.69333 -3.132663,4.064 -1.495778,2.37067 -2.427111,4.572 -0.931333,2.17311 -0.931333,3.35844 0,1.016 0.705555,1.016 0.959556,0 2.54,-1.524 1.608667,-1.524 3.527782,-3.97933 1.74977,-3.24555 5.44688,-8.41022 0.36689,-0.56445 0.98778,-0.56445 0.33867,0 0.59267,0.16934 0.254,0.16933 0.254,0.39511 0,0.11289 -0.0847,0.254 -3.52778,5.95489 -5.16466,9.11578 -1.60867,3.13266 -1.60867,4.60022 0,1.12889 1.10067,1.12889 1.07244,0 2.90688,-1.83445 1.83445,-1.86266 3.47134,-4.40266 z"
         style="font-style:normal;font-variant:normal;font-weight:normal;font-stretch:normal;font-size:28.22222137px;font-family:Magiera;-inkscape-font-specification:Magiera;fill:#ffffff;stroke:#ffffff;stroke-width:0.76499999;stroke-miterlimit:4;stroke-dasharray:none"
         id="path861" />
      <path
         d="m 124.88053,124.00794 q 0.11289,-0.19756 0.254,-0.19756 0.14111,0 0.19755,0.11289 0.0564,0.11289 -0.0282,0.254 -2.032,3.16089 -3.86644,5.10822 -1.83445,1.94734 -3.61245,1.94734 -2.76578,0 -2.76578,-2.25778 0,-0.90311 0.42334,-2.11667 -3.10445,3.18911 -5.47511,3.18911 -1.38289,0 -2.032,-0.64911 -0.67734,-0.62089 -0.67734,-1.72155 0,-2.08845 1.91911,-5.19289 1.94734,-3.10445 4.572,-5.39045 2.62467,-2.31422 4.54378,-2.31422 0.95956,0 1.35467,0.64911 0.39511,0.62089 0.39511,1.43933 0,0.53623 -0.0847,0.70556 -0.0847,0.19756 -0.28222,0.19756 -0.19756,0 -0.16933,-0.254 0.0282,-0.0847 0.0282,-0.45156 0,-0.53622 -0.254,-0.90311 -0.22578,-0.39511 -0.87489,-0.39511 -1.27,0 -3.24556,2.37066 -1.97555,2.37067 -3.52777,5.39045 -1.524,2.99155 -1.524,4.51555 0,1.016 0.762,1.016 0.95955,0 2.54,-1.524 1.60866,-1.524 3.52777,-3.97933 1.74978,-3.24555 5.44689,-8.41022 0.36689,-0.56445 0.98778,-0.56445 0.33867,0 0.59267,0.16934 0.254,0.16933 0.254,0.39511 0,0.11289 -0.0847,0.254 -3.52778,5.95489 -5.16467,9.11578 -1.60866,3.13266 -1.60866,4.60022 0,1.12889 1.10066,1.12889 1.07245,0 2.90689,-1.83445 1.83445,-1.86266 3.47134,-4.40266 z"
         style="font-style:normal;font-variant:normal;font-weight:normal;font-stretch:normal;font-size:28.22222137px;font-family:Magiera;-inkscape-font-specification:Magiera;fill:#ffffff;stroke:#ffffff;stroke-width:0.76499999;stroke-miterlimit:4;stroke-dasharray:none"
         id="path863" />
      <path
         d="m 162.37022,128.80571 q 0.42333,-0.0282 0.67733,0.19756 0.254,0.22578 0.254,0.53622 0,0.31045 -0.254,0.53622 -0.22577,0.254 -0.67733,0.28223 -2.99155,0.14111 -11.938,0.93133 -7.84578,0.67733 -10.52689,0.84667 -0.62089,0.0564 -1.016,0.0564 h -0.0847 q -0.59267,0.0282 -0.90312,-0.11289 -0.31044,-0.14111 -0.31044,-0.33866 0,-0.14112 0.14111,-0.254 0.16933,-0.11289 0.42333,-0.14112 2.17312,0 3.61245,-1.18533 1.46755,-1.18533 2.34244,-2.99155 0.90311,-1.80623 2.06023,-4.96712 1.55222,-4.28977 3.048,-6.97088 1.49577,-2.68112 4.40266,-4.60023 2.90689,-1.91911 7.64822,-1.91911 2.31423,0 3.47134,1.15711 1.15711,1.15711 1.15711,3.01978 0,2.08845 -1.35467,4.34622 -1.32644,2.25778 -3.66889,3.75356 -2.34244,1.49578 -5.22111,1.49578 -1.46755,0 -2.20133,-0.59267 -0.70556,-0.62089 -0.70556,-1.58044 0,-1.04423 0.73378,-2.17312 0.762,-1.12888 2.032,-1.89088 1.27,-0.762 2.73756,-0.762 0.22577,0 0.22577,0.16933 0,0.19755 -0.22577,0.19755 -1.24178,0 -2.286,0.64912 -1.016,0.64911 -1.60867,1.60866 -0.59267,0.95956 -0.59267,1.83445 0,0.70555 0.42334,1.12889 0.45155,0.42333 1.32644,0.42333 2.00378,0 3.78178,-1.43933 1.778,-1.46756 2.82222,-3.58423 1.07245,-2.14489 1.07245,-3.92289 0,-1.29822 -0.64912,-2.06022 -0.62088,-0.79022 -1.89088,-0.79022 -2.794,0 -4.79778,1.55222 -2.00378,1.55222 -3.33022,3.81 -1.29823,2.22956 -3.01978,6.06778 -1.15711,2.56822 -1.97556,4.14867 -0.79022,1.58044 -1.83444,3.048 -1.04422,1.46755 -2.31422,2.39889 4.572,-0.56445 10.49866,-1.15712 5.95489,-0.59266 8.49489,-0.762 z"
         style="font-style:normal;font-variant:normal;font-weight:normal;font-stretch:normal;font-size:28.22222137px;font-family:Magiera;-inkscape-font-specification:Magiera;fill:#ffffff;stroke:#ffffff;stroke-width:0.76499999;stroke-miterlimit:4;stroke-dasharray:none"
         id="path865" />
      <path
         d="m 176.85836,114.77927 q 1.74978,0 2.56822,0.87489 0.84667,0.84667 0.84667,2.34244 0,2.39889 -1.91911,5.61623 -1.91911,3.18911 -4.826,5.47511 -2.90689,2.286 -5.75733,2.286 -1.41111,0 -2.08845,-0.73378 -0.67733,-0.70556 -0.67733,-2.00378 0,-2.34244 1.91911,-5.67267 1.91911,-3.33022 4.68489,-5.75733 2.794,-2.42711 5.24933,-2.42711 z m -7.95866,15.60689 q 1.55222,0 3.72533,-2.39889 2.20133,-2.42711 3.83822,-5.588 1.63689,-3.16089 1.63689,-5.02356 0,-0.762 -0.33867,-1.18533 -0.33866,-0.42333 -1.016,-0.42333 -1.60866,0 -3.78177,2.42711 -2.14489,2.39889 -3.75356,5.588 -1.58044,3.16089 -1.58044,5.02355 0,0.73378 0.31044,1.15712 0.31044,0.42333 0.95956,0.42333 z"
         style="font-style:normal;font-variant:normal;font-weight:normal;font-stretch:normal;font-size:28.22222137px;font-family:Magiera;-inkscape-font-specification:Magiera;fill:#ffffff;stroke:#ffffff;stroke-width:0.76499999;stroke-miterlimit:4;stroke-dasharray:none"
         id="path867" />
      <path
         d="m 213.22622,140.23571 q 0.762,0 1.18533,0.39511 0.45156,0.39512 0.45156,0.93134 0,0.53622 -0.42334,0.93133 -0.42333,0.39511 -1.18533,0.39511 -4.826,0 -8.94644,-0.67733 -4.12045,-0.67733 -7.19667,-1.60867 -3.048,-0.93133 -6.99911,-2.39889 -3.21734,-1.21355 -5.16467,-1.778 -3.13267,4.76956 -6.49111,7.47889 -3.35844,2.70934 -7.19667,2.70934 -1.89088,0 -3.21733,-0.56445 -1.32644,-0.56444 -2.00378,-1.524 -0.67733,-0.95955 -0.67733,-2.14489 0,-1.86266 1.58044,-3.69711 1.58045,-1.80622 4.68489,-3.01978 3.10445,-1.18533 7.42245,-1.18533 2.17311,0 4.23333,0.33867 1.63689,-2.62467 4.54378,-7.81756 -2.96334,3.048 -5.334,3.048 -1.38289,0 -2.032,-0.64911 -0.67734,-0.62089 -0.67734,-1.72155 0,-2.08845 1.91912,-5.19289 1.94733,-3.10445 4.572,-5.39045 2.62466,-2.31422 4.54377,-2.31422 0.95956,0 1.35467,0.64911 0.39511,0.62089 0.39511,1.43933 0,0.53623 -0.0847,0.70556 -0.0847,0.19756 -0.28222,0.19756 -0.19755,0 -0.16933,-0.254 0.0282,-0.0847 0.0282,-0.45156 0,-0.53622 -0.254,-0.90311 -0.22578,-0.39511 -0.87489,-0.39511 -1.27,0 -3.24555,2.37066 -1.97556,2.37067 -3.52778,5.39045 -1.524,2.99155 -1.524,4.51555 0,1.016 0.762,1.016 1.07244,0 3.01978,-1.97555 1.97555,-2.00378 4.14866,-4.99533 2.51178,-4.45912 4.37445,-6.91445 0.11289,-0.28222 0.31044,-0.36689 0.42334,-0.42333 0.93134,-0.42333 0.28222,0 0.47977,0.16933 0.19756,0.14111 0.19756,0.36689 0,0.11289 -0.0847,0.254 -1.10066,1.60867 -2.286,3.78178 -1.15711,2.14489 -2.90689,5.53155 -1.72155,3.38667 -3.10444,5.92667 -1.35467,2.54 -2.794,4.85422 2.20133,0.47978 5.98311,1.55223 3.92289,1.10066 6.77333,1.778 2.85045,0.67733 6.63223,1.15711 3.78177,0.47977 8.15622,0.47977 z m -41.88178,5.39045 q 2.76578,0 5.55978,-2.59645 2.76578,-2.56822 5.72911,-7.16844 -1.83445,-0.39511 -3.58422,-0.39511 -3.49956,0 -6.01134,1.12889 -2.54,1.12889 -3.83822,2.794 -1.32644,1.69333 -1.32644,3.302 0,1.29822 0.90311,2.11666 0.90311,0.81845 2.56822,0.81845 z"
         style="font-style:normal;font-variant:normal;font-weight:normal;font-stretch:normal;font-size:28.22222137px;font-family:Magiera;-inkscape-font-specification:Magiera;fill:#ffffff;stroke:#ffffff;stroke-width:0.76499999;stroke-miterlimit:4;stroke-dasharray:none"
         id="path869" />
      <path
         d="m 206.45861,114.77927 q 1.74978,0 2.56822,0.87489 0.84667,0.84667 0.84667,2.34244 0,2.39889 -1.91911,5.61623 -1.91911,3.18911 -4.826,5.47511 -2.90689,2.286 -5.75733,2.286 -1.41111,0 -2.08845,-0.73378 -0.67733,-0.70556 -0.67733,-2.00378 0,-2.34244 1.91911,-5.67267 1.91911,-3.33022 4.68489,-5.75733 2.794,-2.42711 5.24933,-2.42711 z m -7.95866,15.60689 q 1.55222,0 3.72533,-2.39889 2.20133,-2.42711 3.83822,-5.588 1.63689,-3.16089 1.63689,-5.02356 0,-0.762 -0.33867,-1.18533 -0.33866,-0.42333 -1.016,-0.42333 -1.60866,0 -3.78177,2.42711 -2.14489,2.39889 -3.75356,5.588 -1.58044,3.16089 -1.58044,5.02355 0,0.73378 0.31044,1.15712 0.31044,0.42333 0.95956,0.42333 z"
         style="font-style:normal;font-variant:normal;font-weight:normal;font-stretch:normal;font-size:28.22222137px;font-family:Magiera;-inkscape-font-specification:Magiera;fill:#ffffff;stroke:#ffffff;stroke-width:0.76499999;stroke-miterlimit:4;stroke-dasharray:none"
         id="path871" />
    </g>
  </g>
</svg>
